<?xml version="1.0" encoding="utf-8"?>
<!-- Generator: Adobe Illustrator 16.0.4, SVG Export Plug-In . SVG Version: 6.00 Build 0)  -->
<!DOCTYPE svg PUBLIC "-//W3C//DTD SVG 1.1//EN" "http://www.w3.org/Graphics/SVG/1.1/DTD/svg11.dtd">
<svg version="1.1" id="Layer_1" xmlns="http://www.w3.org/2000/svg" xmlns:xlink="http://www.w3.org/1999/xlink" x="0px" y="0px"
	 width="388px" height="388px" viewBox="0 0 388 388" enable-background="new 0 0 388 388" xml:space="preserve">
<path fill-rule="evenodd" clip-rule="evenodd" fill="#F55F2D" d="M215.117,261.245c-13.393,0-26.327,0-39.698,0
	c-0.142,2.495-0.383,4.771-0.385,7.045c-0.029,22.276-0.12,44.552,0.067,66.825c0.038,4.403-1.19,5.82-5.739,5.788
	c-27.843-0.201-55.687-0.095-83.53-0.104c-9.912-0.004-13.743-3.818-13.744-13.667c-0.009-31.401,0.005-62.803-0.009-94.203
	c-0.005-9.323,0.578-7.98-8.322-8.116c-3.705-0.054-7.503,0.309-11.096-0.37c-8.565-1.612-14.591-6.682-17.224-15.078
	c-2.667-8.508-0.777-16.188,5.513-22.588c28.188-28.68,56.411-57.323,84.618-85.983c18.77-19.07,37.54-38.141,56.296-57.221
	c8.419-8.563,12.84-8.522,21.237,0.007c32.226,32.736,64.495,65.429,96.73,98.158c14.648,14.875,29.298,29.752,43.857,44.714
	c6.88,7.067,9.054,15.418,5.142,24.657c-3.972,9.386-11.435,13.72-21.606,13.757c-4.561,0.017-10.585-1.102-13.239,1.293
	c-2.327,2.102-1.055,8.394-1.063,12.833c-0.056,29.545-0.021,59.09-0.035,88.637c-0.005,9.256-3.948,13.16-13.312,13.168
	c-26.296,0.021-52.594-0.081-78.891,0.1c-4.208,0.029-5.239-1.438-5.216-5.354c0.136-22.428,0.076-44.859,0.048-67.287
	C215.511,265.984,215.264,263.715,215.117,261.245z"/>
</svg>
