<?xml version="1.0" encoding="utf-8"?>
<!-- Generator: Adobe Illustrator 16.0.4, SVG Export Plug-In . SVG Version: 6.00 Build 0)  -->
<!DOCTYPE svg PUBLIC "-//W3C//DTD SVG 1.1//EN" "http://www.w3.org/Graphics/SVG/1.1/DTD/svg11.dtd">
<svg version="1.1" id="Layer_1" xmlns="http://www.w3.org/2000/svg" xmlns:xlink="http://www.w3.org/1999/xlink" x="0px" y="0px"
	 width="388px" height="388px" viewBox="0 0 388 388" enable-background="new 0 0 388 388" xml:space="preserve">
<path fill-rule="evenodd" clip-rule="evenodd" fill="#DE29E2" d="M114.2,58.426c0-10.661,0-20.625,0-30.935
	c10.637,0,20.951,0,31.59,0c0,10.072,0,20.153,0,30.583c31.931,0,63.544,0,95.633,0c0-10.057,0-20.246,0-30.679
	c10.689,0,20.907,0,31.709,0c0,10.121,0,20.3,0,31.03c8.05,0,15.533-0.061,23.014,0.017c7.307,0.076,14.608-0.594,21.699,2.468
	c11.246,4.856,19.285,16.118,19.29,28.331c0.028,72.539,0.035,145.078,0.002,217.616c-0.009,17.267-14.357,31.375-31.835,31.382
	c-58.782,0.021-117.566,0.008-176.349,0.008c-15.348,0-30.695,0.004-46.042,0c-18.693-0.007-32.533-13.804-32.534-32.435
	c-0.002-71.67,0.104-143.34-0.07-215.01C50.26,71.713,66.035,57.848,82.87,58.369C93.125,58.685,103.398,58.426,114.2,58.426z
	 M305.143,104.633c-1.86,0-3.413,0-4.967,0c-70.806,0-141.61,0-212.416,0c-0.724,0-1.457,0.075-2.171-0.012
	c-2.674-0.324-3.571,0.881-3.51,3.484c0.127,5.353,0.036,10.713,0.034,16.07c0,3.826,0,7.651,0,11.433c74.832,0,148.883,0,223.029,0
	C305.143,125.231,305.143,115.167,305.143,104.633z M145.76,182.929c-10.66,0-21.113,0-31.627,0c0,10.391,0,20.547,0,30.717
	c10.768,0,21.213,0,31.627,0C145.76,203.253,145.76,193.191,145.76,182.929z M273.456,182.994c-10.753,0-21.205,0-31.575,0
	c0,10.466,0,20.627,0,30.708c10.655,0,20.989,0,31.575,0C273.456,203.384,273.456,193.339,273.456,182.994z M209.582,183.051
	c-10.721,0-21.172,0-31.575,0c0,10.408,0,20.459,0,30.716c10.635,0,20.967,0,31.575,0
	C209.582,203.368,209.582,193.179,209.582,183.051z M145.765,275.777c0-10.297,0-20.36,0-30.693c-10.571,0-21.044,0-31.728,0
	c0,10.308,0,20.342,0,30.693C124.591,275.777,134.93,275.777,145.765,275.777z M273.546,275.823c0-10.545,0-20.478,0-30.712
	c-10.643,0-21.118,0-31.69,0c0,10.356,0,20.525,0,30.712C252.504,275.823,262.854,275.823,273.546,275.823z M209.47,275.811
	c0-10.424,0-20.558,0-30.988c-9.909,0-19.431-0.053-28.949,0.085c-0.931,0.014-2.637,1.191-2.648,1.854
	c-0.174,9.62-0.119,19.244-0.119,29.05C188.653,275.811,198.97,275.811,209.47,275.811z"/>
</svg>
