<?xml version="1.0" encoding="utf-8"?>
<!-- Generator: Adobe Illustrator 16.0.4, SVG Export Plug-In . SVG Version: 6.00 Build 0)  -->
<!DOCTYPE svg PUBLIC "-//W3C//DTD SVG 1.1//EN" "http://www.w3.org/Graphics/SVG/1.1/DTD/svg11.dtd">
<svg version="1.1" id="Layer_1" xmlns="http://www.w3.org/2000/svg" xmlns:xlink="http://www.w3.org/1999/xlink" x="0px" y="0px"
	 width="23.2px" height="20px" viewBox="184.629 156.5 23.2 20" enable-background="new 184.629 156.5 23.2 20"
	 xml:space="preserve">
<path fill="#F55F2D" d="M191.055,176.569c-0.491,0-0.948,0-1.405,0c-0.976-0.001-1.952,0.007-2.928-0.002
	c-0.988-0.01-1.858-0.685-2.058-1.582c-0.019-0.084-0.029-0.17-0.03-0.257c-0.002-1.183-0.002-2.366-0.001-3.549
	c0-0.042,0.006-0.084,0.012-0.155c0.576,0,1.143,0.003,1.71-0.001c0.61-0.004,1.177-0.168,1.694-0.492
	c1.714-1.072,1.608-3.315-0.204-4.281c-0.48-0.256-0.996-0.378-1.542-0.373c-0.542,0.005-1.085,0.001-1.665,0.001
	c0-0.116,0-0.208,0-0.299c0-1.045,0.032-2.092-0.008-3.135c-0.049-1.314,1.046-2.079,2.006-2.1c1.338-0.03,2.678-0.011,4.017-0.014
	c0.196,0,0.393,0,0.615,0c0-0.406,0-0.784,0-1.162c0-1.351,0.712-2.274,2.038-2.576c1.092-0.248,2.076-0.013,2.878,0.804
	c0.41,0.419,0.613,0.932,0.619,1.519c0.006,0.457,0.001,0.915,0.001,1.415c0.116,0,0.215,0,0.314,0c1.365,0,2.729-0.002,4.095,0.001
	c0.813,0.001,1.476,0.309,1.945,0.988c0.202,0.293,0.281,0.626,0.281,0.979c0,1.149,0,2.298-0.001,3.447c0,0.092,0,0.185,0,0.305
	c0.544,0,1.06-0.001,1.575,0c0.517,0.002,1.015,0.091,1.475,0.338c0.863,0.465,1.412,1.15,1.359,2.169
	c-0.051,0.99-0.644,1.623-1.509,2.025c-0.438,0.204-0.909,0.262-1.388,0.265c-0.491,0-0.982,0-1.513,0c0,0.11,0,0.202,0,0.294
	c0,1.097-0.03,2.195,0.01,3.291c0.046,1.271-0.942,2.078-1.965,2.116c-1.474,0.056-2.951,0.014-4.466,0.014
	c0-0.461-0.002-0.915,0-1.368c0.003-0.584-0.186-1.099-0.556-1.55c-1.37-1.669-4.348-1.35-5.2,0.568
	c-0.123,0.275-0.178,0.595-0.199,0.898C191.032,175.582,191.055,176.058,191.055,176.569z"/>
</svg>
