<?xml version="1.0" encoding="utf-8"?>
<!-- Generator: Adobe Illustrator 16.0.4, SVG Export Plug-In . SVG Version: 6.00 Build 0)  -->
<!DOCTYPE svg PUBLIC "-//W3C//DTD SVG 1.1//EN" "http://www.w3.org/Graphics/SVG/1.1/DTD/svg11.dtd">
<svg version="1.1" id="Layer_1" xmlns="http://www.w3.org/2000/svg" xmlns:xlink="http://www.w3.org/1999/xlink" x="0px" y="0px"
	 width="25.957px" height="20px" viewBox="182 156.5 25.957 20" enable-background="new 182 156.5 25.957 20" xml:space="preserve">
<path fill="#1565C0" d="M206.508,156.5c0,0.832,0,1.649,0,2.478c-7.683,0-15.354,0-23.046,0c0-0.821,0-1.642,0-2.478
	C191.137,156.5,198.814,156.5,206.508,156.5z"/>
<path fill="#1565C0" d="M207.925,166.343c-0.375-1.628-0.75-3.219-1.127-4.846c-0.095-0.408-0.192-0.832-0.285-1.17
	c-7.708,0-15.389,0-23.067,0c-0.383,1.488-0.771,3.257-1.138,4.901c-0.125,0.559-0.323,1.086-0.303,1.676
	c0.021,0.631,0,1.246,0,1.878c0,0.07,0,0.135,0,0.203c0.473,0,0.947,0,1.488,0c0,0.135,0,0.22,0,0.308
	c0,2.321-0.023,4.642-0.03,6.963c0,0.195,0.042,0.245,0.234,0.245c4.649-0.006,9.292-0.005,13.941,0c0.193,0,0.257-0.05,0.256-0.245
	c-0.007-2.334,0.005-4.669,0.005-7.004c0-0.078,0-0.199,0-0.267c1.826,0,3.855,0,5.749,0c0,2.502,0,5.005,0,7.507
	c0.947,0,1.894,0,2.841,0c0-2.502,0-5.005,0-7.507c0.541,0,0.982,0,1.44,0c0.012,0,0.025-0.047,0.025-0.066
	c0.002-0.794,0.003-1.585,0.002-2.379C207.957,166.472,207.939,166.408,207.925,166.343z M194.991,173.989c-2.908,0-5.682,0-8.657,0
	c0-1.691,0-3.314,0-5.005c2.908,0,5.749,0,8.657,0C194.991,170.675,194.991,172.298,194.991,173.989z"/>
</svg>
