<?xml version="1.0" encoding="utf-8"?>
<!-- Generator: Adobe Illustrator 16.0.4, SVG Export Plug-In . SVG Version: 6.00 Build 0)  -->
<!DOCTYPE svg PUBLIC "-//W3C//DTD SVG 1.1//EN" "http://www.w3.org/Graphics/SVG/1.1/DTD/svg11.dtd">
<svg version="1.1" id="Layer_1" xmlns="http://www.w3.org/2000/svg" xmlns:xlink="http://www.w3.org/1999/xlink" x="0px" y="0px"
	 width="388px" height="388px" viewBox="0 0 388 388" enable-background="new 0 0 388 388" xml:space="preserve">
<path fill-rule="evenodd" clip-rule="evenodd" fill="#1565C0" d="M261.65,125.279c-0.357,12.223-3.645,21.373-7.943,30.204
	c-13.287,27.292-31.993,50.847-51.249,74.013c-1.441,1.734-2.916,3.444-4.423,5.122c-5.09,5.67-10.361,5.783-15.229-0.195
	c-10.543-12.946-21.51-25.624-31.057-39.285c-9.268-13.26-17.572-27.29-25.25-41.548c-18.445-34.254,2.594-71.496,30.059-85.748
	c40.621-21.078,90.892-0.292,102.522,43.251C260.502,116.419,261.067,121.975,261.65,125.279z M190.78,104.721
	c-13.771-0.068-24.897,10.569-24.869,23.776c0.027,12.711,11.617,23.834,24.693,23.698c13.201-0.137,24.521-11.253,24.429-23.988
	C214.941,115.401,203.979,104.786,190.78,104.721z"/>
<path fill-rule="evenodd" clip-rule="evenodd" fill="#1565C0" d="M116.743,339.824c-13.91-5.372-27.059-10.445-40.203-15.532
	c-11.626-4.499-23.236-9.036-34.868-13.516c-10.793-4.154-14.381-9.272-14.381-20.706c-0.002-43.485-0.003-86.97,0-130.454
	c0.001-10.74,5.336-14.281,15.014-10.006c23.5,10.377,46.982,20.79,70.531,31.051c3.037,1.323,4.267,2.952,4.259,6.371
	c-0.106,49.354-0.07,98.706-0.082,148.059C117.013,336.41,116.867,337.729,116.743,339.824z"/>
<path fill-rule="evenodd" clip-rule="evenodd" fill="#1565C0" d="M276.079,152.736c14.163,5.47,28.171,10.875,42.177,16.289
	c7.566,2.925,15.145,5.829,22.691,8.807c8.77,3.458,12.699,9.236,12.701,18.704c0.016,44.265,0.017,88.529,0,132.793
	c-0.003,9.309-5.705,13.098-14.22,9.356c-23.945-10.518-47.842-21.147-71.803-31.628c-2.731-1.194-3.771-2.738-3.765-5.771
	c0.095-40.349,0.058-80.699,0.088-121.049c0.002-1.323,0.047-2.792,0.596-3.944C268.22,168.587,272.036,160.948,276.079,152.736z"/>
<path fill-rule="evenodd" clip-rule="evenodd" fill="#1565C0" d="M244.384,208.247c0,4.754,0,9.086,0,13.417
	c0,26.346-0.022,52.691,0.033,79.039c0.007,2.758-0.204,4.684-3.488,5.732c-34.181,10.907-68.307,21.992-102.451,33.014
	c-0.263,0.085-0.585-0.014-1.396-0.051c0-43.572,0-87.167,0-130.979c6.987,8.802,13.827,17.524,20.791,26.146
	c3.686,4.563,7.549,8.987,11.395,13.42c10.975,12.649,31.379,12.857,42.25,0.105C222.531,235.172,233.143,221.911,244.384,208.247z"
	/>
</svg>
