<?xml version="1.0" encoding="utf-8"?>
<!-- Generator: Adobe Illustrator 16.0.4, SVG Export Plug-In . SVG Version: 6.00 Build 0)  -->
<!DOCTYPE svg PUBLIC "-//W3C//DTD SVG 1.1//EN" "http://www.w3.org/Graphics/SVG/1.1/DTD/svg11.dtd">
<svg version="1.1" id="Layer_1" xmlns="http://www.w3.org/2000/svg" xmlns:xlink="http://www.w3.org/1999/xlink" x="0px" y="0px"
	 width="24.426px" height="20.017px" viewBox="184.629 156.483 24.426 20.017"
	 enable-background="new 184.629 156.483 24.426 20.017" xml:space="preserve">
<path fill-rule="evenodd" clip-rule="evenodd" fill="#1565C0" d="M196.649,176.499c-3.292,0-6.584,0-9.875,0
	c-1.157,0-2.139-0.962-2.141-2.124c-0.005-5.221-0.007-10.442,0.001-15.663c0.002-1.191,1.02-2.217,2.208-2.218
	c6.668-0.007,13.335-0.027,20.004,0.015c1.358,0.009,2.161,0.936,2.175,2.285c0.056,5.179,0.03,10.358,0.019,15.537
	c-0.003,1.2-1.086,2.164-2.388,2.166C203.318,176.503,199.984,176.499,196.649,176.499z M186.926,165.425c0.274,0,0.501,0,0.729,0
	c2.536,0,5.072,0,7.608,0c1.587,0,1.562-0.001,1.588-1.585c0.01-0.582-0.21-0.693-0.734-0.69c-2.87,0.021-5.742,0.01-8.614,0.01
	c-0.183,0-0.365,0-0.577,0C186.926,163.926,186.926,164.631,186.926,165.425z M196.809,158.798c-3.326,0-6.602,0-9.862,0
	c0,0.723,0,1.399,0,2.064c3.312,0,6.572,0,9.862,0C196.809,160.169,196.809,159.506,196.809,158.798z"/>
</svg>
