<?xml version="1.0" encoding="utf-8"?>
<!-- Generator: Adobe Illustrator 16.0.4, SVG Export Plug-In . SVG Version: 6.00 Build 0)  -->
<!DOCTYPE svg PUBLIC "-//W3C//DTD SVG 1.1//EN" "http://www.w3.org/Graphics/SVG/1.1/DTD/svg11.dtd">
<svg version="1.1" id="Layer_1" xmlns="http://www.w3.org/2000/svg" xmlns:xlink="http://www.w3.org/1999/xlink" x="0px" y="0px"
	 width="27.914px" height="20px" viewBox="180.043 156.5 27.914 20" enable-background="new 180.043 156.5 27.914 20"
	 xml:space="preserve">
<path fill="#0F967D" d="M200.192,176.494c-4.136,0-8.25,0-12.375,0c-0.005-0.039-0.014-0.074-0.014-0.108
	c-0.001-1.341-0.014-2.682,0.004-4.023c0.016-1.153,0.455-2.155,1.199-3.021c0.936-1.089,2.138-1.739,3.531-2.022
	c1.831-0.372,3.57-0.102,5.159,0.904c1.297,0.821,2.157,1.97,2.44,3.505c0.043,0.233,0.059,0.475,0.061,0.712
	c0.006,1.304,0.002,2.608,0.002,3.913C200.2,176.396,200.196,176.437,200.192,176.494z"/>
<path fill="#0F967D" d="M193.963,156.494c1.408,0.036,2.618,0.454,3.6,1.438c1.402,1.404,1.458,3.543,0.123,5.014
	c-0.789,0.869-1.785,1.345-2.938,1.505c-1.345,0.187-2.594-0.081-3.709-0.864c-0.949-0.668-1.552-1.573-1.672-2.746
	c-0.106-1.027,0.219-1.934,0.89-2.708c0.823-0.951,1.89-1.444,3.126-1.591C193.588,156.516,193.796,156.507,193.963,156.494z"/>
<path fill="#0F967D" d="M185.831,168.604c-0.235,0.503-0.482,0.973-0.678,1.464c-0.312,0.779-0.446,1.597-0.444,2.438
	c0.003,1.255,0,2.511,0,3.766c0,0.066,0,0.133,0,0.214c-1.553,0-3.092,0-4.656,0c0-0.061,0-0.126,0-0.191
	c0-1.225,0.009-2.45-0.002-3.675c-0.012-1.261,0.511-2.262,1.474-3.036c1.022-0.822,2.21-1.147,3.511-1.069
	C185.306,168.531,185.577,168.575,185.831,168.604z"/>
<path fill="#0F967D" d="M207.943,176.49c-1.557,0-3.09,0-4.645,0c0-0.088,0-0.166,0-0.244c0-1.15-0.014-2.301,0.004-3.452
	c0.023-1.476-0.334-2.841-1.122-4.091c-0.009-0.015-0.016-0.033-0.038-0.081c0.203-0.033,0.396-0.077,0.591-0.094
	c1.166-0.105,2.267,0.102,3.27,0.724c1.075,0.666,1.759,1.605,1.934,2.88c0.014,0.103,0.013,0.208,0.013,0.312
	c0.001,1.304,0.001,2.608,0.001,3.912C207.949,176.396,207.946,176.437,207.943,176.49z"/>
<path fill="#0F967D" d="M184.598,165.843c-0.981-0.038-1.92-0.395-2.562-1.317c-0.709-1.019-0.543-2.312,0.375-3.159
	c1.211-1.119,3.219-1.16,4.479-0.092c1.334,1.132,1.188,3.048-0.308,4.02C186.012,165.664,185.382,165.834,184.598,165.843z"/>
<path fill="#0F967D" d="M203.482,160.503c0.774,0.013,1.622,0.312,2.272,1.037c0.96,1.069,0.847,2.552-0.247,3.508
	c-1.293,1.132-3.431,1.041-4.62-0.198c-1.056-1.102-0.877-2.785,0.398-3.71C201.885,160.706,202.56,160.504,203.482,160.503z"/>
</svg>
