<?xml version="1.0" encoding="utf-8"?>
<!-- Generator: Adobe Illustrator 16.0.4, SVG Export Plug-In . SVG Version: 6.00 Build 0)  -->
<!DOCTYPE svg PUBLIC "-//W3C//DTD SVG 1.1//EN" "http://www.w3.org/Graphics/SVG/1.1/DTD/svg11.dtd">
<svg version="1.1" id="Layer_1" xmlns="http://www.w3.org/2000/svg" xmlns:xlink="http://www.w3.org/1999/xlink" x="0px" y="0px"
	 width="388px" height="388px" viewBox="0 0 388 388" enable-background="new 0 0 388 388" xml:space="preserve">
<path fill-rule="evenodd" clip-rule="evenodd" fill="#2DC5F5" d="M244.966,337.483c0-11.263,0-22.196,0-33.74
	c2.291,0,4.395,0,6.497,0c18.988,0,37.977-0.109,56.962,0.084c4.077,0.041,5.428-1.031,5.387-5.271
	c-0.205-20.979-0.094-41.962-0.094-63.354c11.223,0,22.278,0,33.717,0c0,33.847,0,67.889,0,102.281
	C313.5,337.483,279.463,337.483,244.966,337.483z"/>
<path fill-rule="evenodd" clip-rule="evenodd" fill="#2DC5F5" d="M140.522,303.743c0,11.656,0,22.591,0,33.807
	c-34.243,0-68.283,0-102.582,0c0-34.095,0-68.017,0-102.348c10.94,0,21.994,0,33.836,0c0,1.56,0,3.303,0,5.049
	c0,19.487,0.097,38.976-0.082,58.463c-0.036,3.896,0.987,5.162,5.029,5.118c19.318-0.203,38.641-0.089,57.96-0.089
	C136.489,303.743,138.292,303.743,140.522,303.743z"/>
<path fill-rule="evenodd" clip-rule="evenodd" fill="#2DC5F5" d="M313.72,130.353c0-13.826,0-27.45,0-41.075
	c0-7.495-0.211-14.998,0.082-22.482c0.156-3.974-1.089-5.12-5.067-5.083c-19.985,0.19-39.974,0.09-59.96,0.08
	c-1.138-0.001-2.274-0.1-3.701-0.166c0-11.264,0-22.32,0-33.649c34.167,0,68.208,0,102.492,0c0,34.133,0,68.056,0,102.375
	C336.588,130.353,325.533,130.353,313.72,130.353z"/>
<path fill-rule="evenodd" clip-rule="evenodd" fill="#2DC5F5" d="M38.019,27.909c34.294,0,68.215,0,102.422,0
	c0,11.257,0,22.311,0,33.89c-1.965,0-3.747,0-5.528,0c-19.321,0-38.642,0.121-57.961-0.094c-4.25-0.047-5.297,1.329-5.261,5.395
	c0.183,20.971,0.085,41.944,0.085,63.283c-11.301,0-22.36,0-33.758,0C38.019,96.408,38.019,62.368,38.019,27.909z"/>
<path fill-rule="evenodd" clip-rule="evenodd" fill="#2DC5F5" d="M174.908,268.588c-22.768,0-45.214,0-67.929,0
	c0-22.783,0-45.345,0-68.466c3.197,0,6.156,0,9.115,0c18.166,0,36.332,0.014,54.499-0.015c2.617-0.003,4.889-0.244,4.862,3.68
	c-0.145,21.001-0.084,42-0.114,62.999C175.34,267.259,175.121,267.729,174.908,268.588z"/>
<path fill-rule="evenodd" clip-rule="evenodd" fill="#2DC5F5" d="M278.425,268.593c-22.819,0-45.274,0-68.12,0
	c-0.084-1.812-0.223-3.432-0.225-5.054c-0.013-19.337,0.085-38.677-0.088-58.009c-0.033-3.93,0.744-5.562,5.15-5.508
	c19.667,0.232,39.34,0.095,59.01,0.106c1.309,0.003,2.618,0.116,4.272,0.191C278.425,223.088,278.425,245.645,278.425,268.593z"/>
<path fill-rule="evenodd" clip-rule="evenodd" fill="#2DC5F5" d="M210.56,96.959c22.79,0,45.245,0,67.959,0
	c0,22.796,0,45.367,0,68.488c-3.878,0-7.504,0-11.135,0c-17.505,0-35.011-0.016-52.519,0.016c-2.638,0.003-4.879,0.199-4.854-3.705
	c0.146-21.007,0.085-42.014,0.114-63.022C210.126,98.266,210.349,97.795,210.56,96.959z"/>
<path fill-rule="evenodd" clip-rule="evenodd" fill="#2DC5F5" d="M106.973,165.142c0-22.696,0-45.146,0-68.002
	c22.467,0,45.035,0,68.018,0c0.121,1.081,0.384,2.342,0.386,3.603c0.025,20.004-0.072,40.008,0.099,60.01
	c0.032,3.794-1.184,4.797-4.863,4.768c-19.836-0.16-39.673-0.07-59.509-0.088C109.807,165.432,108.511,165.256,106.973,165.142z"/>
</svg>
