<?xml version="1.0" encoding="utf-8"?>
<!-- Generator: Adobe Illustrator 16.0.4, SVG Export Plug-In . SVG Version: 6.00 Build 0)  -->
<!DOCTYPE svg PUBLIC "-//W3C//DTD SVG 1.1//EN" "http://www.w3.org/Graphics/SVG/1.1/DTD/svg11.dtd">
<svg version="1.1" id="Layer_1" xmlns="http://www.w3.org/2000/svg" xmlns:xlink="http://www.w3.org/1999/xlink" x="0px" y="0px"
	 width="250px" height="176px" viewBox="0 0 250 176" enable-background="new 0 0 250 176" xml:space="preserve">
<path opacity="0.2" fill-rule="evenodd" clip-rule="evenodd" fill="#006E78" d="M109.935,0.887c0,10.866,0,21.05,0,31.549
	c-25.67,0.697-46.217,11.262-62.492,32.122c8.953-1.335,16.935-0.792,24.598,1.829c21.243,7.266,34.278,22.118,37.529,44.23
	c3.397,23.111-5.089,42.091-24.846,54.581c-35.511,22.452-80.146-1.542-82.942-44.025c-1.324-20.115,1.452-39.546,10.453-57.683
	C29.166,29.367,56.486,8.856,94.137,2.438C99.198,1.575,104.378,1.414,109.935,0.887z"/>
<path opacity="0.2" fill-rule="evenodd" clip-rule="evenodd" fill="#006E78" d="M248.548,0.887c0,10.866,0,21.05,0,31.549
	c-25.669,0.697-46.217,11.262-62.491,32.122c8.953-1.335,16.935-0.792,24.597,1.829c21.243,7.266,34.279,22.118,37.53,44.23
	c3.396,23.111-5.09,42.091-24.848,54.581c-35.51,22.452-80.146-1.542-82.94-44.025c-1.324-20.115,1.452-39.546,10.452-57.683
	C167.78,29.367,195.1,8.856,232.751,2.438C237.811,1.575,242.992,1.414,248.548,0.887z"/>
</svg>
