<?xml version="1.0" encoding="utf-8"?>
<!-- Generator: Adobe Illustrator 16.0.4, SVG Export Plug-In . SVG Version: 6.00 Build 0)  -->
<!DOCTYPE svg PUBLIC "-//W3C//DTD SVG 1.1//EN" "http://www.w3.org/Graphics/SVG/1.1/DTD/svg11.dtd">
<svg version="1.1" id="Layer_1" xmlns="http://www.w3.org/2000/svg" xmlns:xlink="http://www.w3.org/1999/xlink" x="0px" y="0px"
	 width="388px" height="388px" viewBox="0 0 388 388" enable-background="new 0 0 388 388" xml:space="preserve">
<path fill-rule="evenodd" clip-rule="evenodd" fill="#0F967D" d="M193.769,344.271c-17.968-21.342-35.714-42.354-53.384-63.431
	c-14.238-16.98-28.584-33.878-42.519-51.107c-13.984-17.29-23.125-36.876-26.694-59.008c-6.287-38.982,3.288-73.817,28.492-103.812
	c19.028-22.646,43.6-36.739,73.099-41.777c35.369-6.041,67.477,2.098,95.748,23.499c24.663,18.671,40.467,43.647,46.789,74.247
	c8.081,39.112-0.658,74.375-24.855,105.79c-9.673,12.558-20.322,24.361-30.493,36.536c-10.569,12.647-21.085,25.344-31.655,37.991
	c-8.768,10.495-17.578,20.952-26.375,31.421C199.305,337.732,196.673,340.831,193.769,344.271z M192.842,117.995
	c-1.84-2.226-3.546-4.723-5.671-6.791c-10.148-9.872-28.765-9.874-38.97-0.125c-14.368,13.729-14.542,33.876-0.479,48.058
	c6.562,6.617,12.875,13.486,19.558,19.979c9.039,8.785,18.322,17.319,27.622,26.074c14.004-14.399,28.64-29.667,43.535-44.674
	c7.838-7.896,12.294-16.795,11.401-28.195c-0.885-11.287-6.283-19.76-15.971-24.987c-9.856-5.318-20.176-5.255-29.772,1.038
	C200.349,110.827,197.211,114.208,192.842,117.995z"/>
</svg>
