<?xml version="1.0" encoding="utf-8"?>
<!-- Generator: Adobe Illustrator 16.0.4, SVG Export Plug-In . SVG Version: 6.00 Build 0)  -->
<!DOCTYPE svg PUBLIC "-//W3C//DTD SVG 1.1//EN" "http://www.w3.org/Graphics/SVG/1.1/DTD/svg11.dtd">
<svg version="1.1" id="Layer_1" xmlns="http://www.w3.org/2000/svg" xmlns:xlink="http://www.w3.org/1999/xlink" x="0px" y="0px"
	 width="98px" height="131px" viewBox="0 0 98 131" enable-background="new 0 0 98 131" xml:space="preserve">
<path fill-rule="evenodd" clip-rule="evenodd" fill="#EEEEEE" d="M49.122,2.133c22.68,0.044,41.964,16.247,45.663,38.405
	c1.496,8.957-0.159,17.557-3.174,25.963c-5.299,14.778-13.484,27.979-22.598,40.624c-4.567,6.337-9.497,12.416-14.345,18.548
	c-3.41,4.312-7.768,4.238-11.304-0.006c-12.228-14.677-23.438-30.05-31.924-47.241C7.346,70.128,3.981,61.553,3,52.224
	C1.584,38.758,5.652,27.054,14.66,17.137C23.517,7.385,36.054,2.108,49.122,2.133z M65.719,47.65
	c-0.041-9.114-7.447-16.492-16.551-16.487c-9.494,0.006-17.071,7.441-16.94,16.624c0.131,9.209,7.535,16.336,16.954,16.32
	C58.352,64.092,65.76,56.719,65.719,47.65z"/>
<path fill-rule="evenodd" clip-rule="evenodd" fill="#FFFFFF" d="M65.719,47.65c0.041,9.069-7.367,16.442-16.537,16.458
	c-9.419,0.016-16.823-7.111-16.954-16.32c-0.131-9.183,7.446-16.618,16.94-16.624C58.271,31.158,65.678,38.536,65.719,47.65z"/>
</svg>
